<svg xmlns="http://www.w3.org/2000/svg" width="142.71" height="35" viewBox="0 0 142.71 35"><rect class="svg__rect" x="0" y="0" width="99.05" height="35" fill="#8700EC"/><rect class="svg__rect" x="97.05" y="0" width="45.66000000000001" height="35" fill="#000000"/><path class="svg__text" d="M13.95 18.19L13.95 18.19L13.95 17.39Q13.95 16.19 14.38 15.27Q14.80 14.35 15.60 13.85Q16.40 13.35 17.45 13.35L17.45 13.35Q18.86 13.35 19.73 14.12Q20.59 14.89 20.73 16.29L20.73 16.29L19.25 16.29Q19.14 15.37 18.71 14.96Q18.28 14.55 17.45 14.55L17.45 14.55Q16.48 14.55 15.97 15.26Q15.45 15.96 15.44 17.33L15.44 17.33L15.44 18.09Q15.44 19.47 15.93 20.20Q16.43 20.92 17.38 20.92L17.38 20.92Q18.25 20.92 18.69 20.53Q19.13 20.14 19.25 19.22L19.25 19.22L20.73 19.22Q20.60 20.59 19.72 21.35Q18.84 22.12 17.38 22.12L17.38 22.12Q16.36 22.12 15.59 21.63Q14.81 21.15 14.39 20.26Q13.97 19.37 13.95 18.19ZM24.77 18.00L24.77 18.00L24.77 17.52Q24.77 16.28 25.21 15.32Q25.65 14.37 26.46 13.86Q27.27 13.35 28.31 13.35Q29.35 13.35 30.16 13.85Q30.96 14.35 31.40 15.29Q31.84 16.23 31.85 17.48L31.85 17.48L31.85 17.96Q31.85 19.21 31.41 20.16Q30.98 21.10 30.18 21.61Q29.37 22.12 28.32 22.12L28.32 22.12Q27.28 22.12 26.47 21.61Q25.66 21.10 25.22 20.17Q24.78 19.23 24.77 18.00ZM26.25 17.46L26.25 17.96Q26.25 19.36 26.80 20.13Q27.35 20.90 28.32 20.90L28.32 20.90Q29.31 20.90 29.84 20.15Q30.37 19.40 30.37 17.96L30.37 17.96L30.37 17.51Q30.37 16.09 29.83 15.34Q29.29 14.58 28.31 14.58L28.31 14.58Q27.35 14.58 26.81 15.33Q26.26 16.09 26.25 17.46L26.25 17.46ZM37.80 22L36.31 22L36.31 13.47L37.80 13.47L41.61 19.54L41.61 13.47L43.08 13.47L43.08 22L41.60 22L37.80 15.95L37.80 22ZM49.50 14.66L46.87 14.66L46.87 13.47L53.63 13.47L53.63 14.66L50.97 14.66L50.97 22L49.50 22L49.50 14.66ZM58.17 22L56.63 22L59.85 13.47L61.18 13.47L64.41 22L62.86 22L62.16 20.01L58.86 20.01L58.17 22ZM60.51 15.28L59.28 18.82L61.75 18.82L60.51 15.28ZM68.09 18.19L68.09 18.19L68.09 17.39Q68.09 16.19 68.52 15.27Q68.95 14.35 69.75 13.85Q70.55 13.35 71.60 13.35L71.60 13.35Q73.01 13.35 73.87 14.12Q74.73 14.89 74.87 16.29L74.87 16.29L73.40 16.29Q73.29 15.37 72.86 14.96Q72.43 14.55 71.60 14.55L71.60 14.55Q70.63 14.55 70.11 15.26Q69.59 15.96 69.58 17.33L69.58 17.33L69.58 18.09Q69.58 19.47 70.08 20.20Q70.57 20.92 71.53 20.92L71.53 20.92Q72.40 20.92 72.84 20.53Q73.28 20.14 73.40 19.22L73.40 19.22L74.87 19.22Q74.74 20.59 73.87 21.35Q72.99 22.12 71.53 22.12L71.53 22.12Q70.51 22.12 69.73 21.63Q68.96 21.15 68.53 20.26Q68.11 19.37 68.09 18.19ZM80.87 14.66L78.23 14.66L78.23 13.47L85.00 13.47L85.00 14.66L82.34 14.66L82.34 22L80.87 22L80.87 14.66Z" fill="#FFFFFF"/><path class="svg__text" d="M111.17 18.26L111.17 18.26L111.17 13.60L113.55 13.60L113.55 18.19Q113.55 20.20 115.14 20.20L115.14 20.20Q116.72 20.20 116.72 18.19L116.72 18.19L116.72 13.60L119.07 13.60L119.07 18.26Q119.07 20.13 118.03 21.15Q116.99 22.17 115.12 22.17L115.12 22.17Q113.24 22.17 112.20 21.15Q111.17 20.13 111.17 18.26ZM123.57 21.24L123.57 21.24L124.35 19.49Q124.91 19.86 125.65 20.09Q126.40 20.32 127.12 20.32L127.12 20.32Q128.48 20.32 128.49 19.64L128.49 19.64Q128.49 19.28 128.10 19.11Q127.71 18.93 126.84 18.74L126.84 18.74Q125.89 18.53 125.26 18.30Q124.62 18.06 124.17 17.55Q123.71 17.03 123.71 16.16L123.71 16.16Q123.71 15.39 124.13 14.77Q124.55 14.15 125.39 13.79Q126.22 13.43 127.43 13.43L127.43 13.43Q128.25 13.43 129.06 13.62Q129.86 13.80 130.48 14.17L130.48 14.17L129.75 15.93Q128.55 15.28 127.42 15.28L127.42 15.28Q126.71 15.28 126.38 15.49Q126.06 15.70 126.06 16.04L126.06 16.04Q126.06 16.37 126.45 16.54Q126.83 16.71 127.68 16.89L127.68 16.89Q128.64 17.10 129.27 17.33Q129.90 17.56 130.36 18.07Q130.83 18.58 130.83 19.46L130.83 19.46Q130.83 20.21 130.41 20.83Q129.99 21.44 129.15 21.80Q128.31 22.17 127.11 22.17L127.11 22.17Q126.09 22.17 125.12 21.92Q124.16 21.67 123.57 21.24Z" fill="#FFFFFF" x="110.05"/></svg>