<svg xmlns="http://www.w3.org/2000/svg" width="235.48000000000002" height="35" viewBox="0 0 235.48000000000002 35"><rect class="svg__rect" x="0" y="0" width="115.28" height="35" fill="#EC1473"/><rect class="svg__rect" x="113.28" y="0" width="122.2" height="35" fill="#000000"/><path class="svg__text" d="M15.69 22L14.22 22L14.22 13.47L16.14 13.47L18.60 20.01L21.06 13.47L22.97 13.47L22.97 22L21.49 22L21.49 19.19L21.64 15.43L19.12 22L18.06 22L15.55 15.43L15.69 19.19L15.69 22ZM29.28 22L27.80 22L27.80 13.47L29.28 13.47L29.28 22ZM39.44 22L34.09 22L34.09 13.47L35.57 13.47L35.57 20.82L39.44 20.82L39.44 22ZM49.14 22L43.57 22L43.57 13.47L49.10 13.47L49.10 14.66L45.05 14.66L45.05 17.02L48.55 17.02L48.55 18.19L45.05 18.19L45.05 20.82L49.14 20.82L49.14 22ZM52.91 19.42L52.91 19.42L54.39 19.42Q54.39 20.15 54.87 20.55Q55.35 20.95 56.25 20.95L56.25 20.95Q57.02 20.95 57.41 20.63Q57.80 20.32 57.80 19.80L57.80 19.80Q57.80 19.24 57.40 18.94Q57.01 18.63 55.98 18.32Q54.95 18.01 54.34 17.63L54.34 17.63Q53.17 16.90 53.17 15.72L53.17 15.72Q53.17 14.69 54.01 14.02Q54.85 13.35 56.19 13.35L56.19 13.35Q57.08 13.35 57.78 13.68Q58.48 14.01 58.88 14.61Q59.28 15.22 59.28 15.96L59.28 15.96L57.80 15.96Q57.80 15.29 57.38 14.91Q56.96 14.54 56.18 14.54L56.18 14.54Q55.46 14.54 55.05 14.85Q54.65 15.16 54.65 15.71L54.65 15.71Q54.65 16.18 55.09 16.50Q55.52 16.81 56.52 17.10Q57.51 17.40 58.12 17.78Q58.72 18.16 59.00 18.65Q59.28 19.13 59.28 19.79L59.28 19.79Q59.28 20.86 58.46 21.49Q57.65 22.12 56.25 22.12L56.25 22.12Q55.32 22.12 54.54 21.77Q53.77 21.43 53.34 20.83Q52.91 20.22 52.91 19.42ZM65.25 14.66L62.62 14.66L62.62 13.47L69.38 13.47L69.38 14.66L66.72 14.66L66.72 22L65.25 22L65.25 14.66ZM72.87 18.00L72.87 18.00L72.87 17.52Q72.87 16.28 73.31 15.32Q73.75 14.37 74.56 13.86Q75.37 13.35 76.41 13.35Q77.45 13.35 78.26 13.85Q79.06 14.35 79.50 15.29Q79.94 16.23 79.95 17.48L79.95 17.48L79.95 17.96Q79.95 19.21 79.51 20.16Q79.08 21.10 78.27 21.61Q77.47 22.12 76.42 22.12L76.42 22.12Q75.38 22.12 74.57 21.61Q73.76 21.10 73.32 20.17Q72.88 19.23 72.87 18.00ZM74.35 17.46L74.35 17.96Q74.35 19.36 74.90 20.13Q75.45 20.90 76.42 20.90L76.42 20.90Q77.40 20.90 77.93 20.15Q78.47 19.40 78.47 17.96L78.47 17.96L78.47 17.51Q78.47 16.09 77.93 15.34Q77.39 14.58 76.41 14.58L76.41 14.58Q75.45 14.58 74.91 15.33Q74.36 16.09 74.35 17.46L74.35 17.46ZM85.89 22L84.41 22L84.41 13.47L85.89 13.47L89.71 19.54L89.71 13.47L91.18 13.47L91.18 22L89.70 22L85.89 15.95L85.89 22ZM101.50 22L95.92 22L95.92 13.47L101.46 13.47L101.46 14.66L97.40 14.66L97.40 17.02L100.91 17.02L100.91 18.19L97.40 18.19L97.40 20.82L101.50 20.82L101.50 22Z" fill="#FFFFFF"/><path class="svg__text" d="M130.05 22L126.46 13.60L129.03 13.60L131.31 19.07L133.64 13.60L135.99 13.60L132.39 22L130.05 22ZM146.89 22L140.14 22L140.14 13.60L146.73 13.60L146.73 15.44L142.50 15.44L142.50 16.85L146.23 16.85L146.23 18.63L142.50 18.63L142.50 20.17L146.89 20.17L146.89 22ZM154.07 22L151.69 22L151.69 13.60L155.53 13.60Q156.68 13.60 157.51 13.98Q158.35 14.35 158.81 15.06Q159.27 15.76 159.27 16.71L159.27 16.71Q159.27 17.62 158.84 18.30Q158.41 18.98 157.62 19.36L157.62 19.36L159.43 22L156.89 22L155.36 19.77L154.07 19.77L154.07 22ZM154.07 15.47L154.07 17.93L155.39 17.93Q156.12 17.93 156.49 17.61Q156.86 17.29 156.86 16.71L156.86 16.71Q156.86 16.12 156.49 15.79Q156.12 15.47 155.39 15.47L155.39 15.47L154.07 15.47ZM163.47 21.24L163.47 21.24L164.25 19.49Q164.81 19.86 165.55 20.09Q166.30 20.32 167.02 20.32L167.02 20.32Q168.38 20.32 168.39 19.64L168.39 19.64Q168.39 19.28 168.00 19.11Q167.61 18.93 166.74 18.74L166.74 18.74Q165.79 18.53 165.16 18.30Q164.52 18.06 164.07 17.55Q163.61 17.03 163.61 16.16L163.61 16.16Q163.61 15.39 164.03 14.77Q164.45 14.15 165.29 13.79Q166.12 13.43 167.33 13.43L167.33 13.43Q168.16 13.43 168.96 13.62Q169.77 13.80 170.38 14.17L170.38 14.17L169.65 15.93Q168.45 15.28 167.32 15.28L167.32 15.28Q166.61 15.28 166.29 15.49Q165.96 15.70 165.96 16.04L165.96 16.04Q165.96 16.37 166.35 16.54Q166.73 16.71 167.58 16.89L167.58 16.89Q168.54 17.10 169.17 17.33Q169.80 17.56 170.26 18.07Q170.73 18.58 170.73 19.46L170.73 19.46Q170.73 20.21 170.31 20.83Q169.89 21.44 169.05 21.80Q168.21 22.17 167.01 22.17L167.01 22.17Q165.99 22.17 165.03 21.92Q164.07 21.67 163.47 21.24ZM177.68 22L175.30 22L175.30 13.60L177.68 13.60L177.68 22ZM182.43 17.80L182.43 17.80Q182.43 16.55 183.03 15.55Q183.64 14.56 184.70 14.00Q185.76 13.43 187.09 13.43L187.09 13.43Q188.42 13.43 189.49 14.00Q190.55 14.56 191.16 15.55Q191.76 16.55 191.76 17.80L191.76 17.80Q191.76 19.05 191.16 20.04Q190.55 21.04 189.49 21.60Q188.43 22.17 187.09 22.17L187.09 22.17Q185.76 22.17 184.70 21.60Q183.64 21.04 183.03 20.04Q182.43 19.05 182.43 17.80ZM184.83 17.80L184.83 17.80Q184.83 18.51 185.13 19.05Q185.43 19.60 185.94 19.90Q186.46 20.20 187.09 20.20L187.09 20.20Q187.73 20.20 188.25 19.90Q188.76 19.60 189.06 19.05Q189.36 18.51 189.36 17.80L189.36 17.80Q189.36 17.09 189.06 16.54Q188.76 16 188.25 15.70Q187.73 15.40 187.09 15.40L187.09 15.40Q186.45 15.40 185.94 15.70Q185.43 16 185.13 16.54Q184.83 17.09 184.83 17.80ZM198.82 22L196.49 22L196.49 13.60L198.45 13.60L202.16 18.07L202.16 13.60L204.48 13.60L204.48 22L202.53 22L198.82 17.52L198.82 22ZM215.73 21.34L215.73 21.34L216.59 19.55Q217.09 19.88 217.71 20.07Q218.32 20.25 218.93 20.25L218.93 20.25Q219.54 20.25 219.90 20.02Q220.26 19.79 220.26 19.37L220.26 19.37Q220.26 18.55 218.97 18.55L218.97 18.55L217.98 18.55L217.98 17.05L219.48 15.44L216.17 15.44L216.17 13.60L222.24 13.60L222.24 15.09L220.50 16.96Q221.54 17.18 222.10 17.82Q222.66 18.46 222.66 19.37L222.66 19.37Q222.66 20.11 222.25 20.75Q221.85 21.39 221.03 21.78Q220.21 22.17 219.00 22.17L219.00 22.17Q218.11 22.17 217.24 21.95Q216.37 21.74 215.73 21.34Z" fill="#FFFFFF" x="126.28"/></svg>