<svg xmlns="http://www.w3.org/2000/svg" width="146.49" height="35" viewBox="0 0 146.49 35"><rect class="svg__rect" x="0" y="0" width="47.88" height="35" fill="#194DFF"/><rect class="svg__rect" x="45.88" y="0" width="100.61000000000001" height="35" fill="#000000"/><path class="svg__text" d="M15.69 22L14.22 22L14.22 13.47L16.14 13.47L18.60 20.01L21.06 13.47L22.97 13.47L22.97 22L21.49 22L21.49 19.19L21.64 15.43L19.12 22L18.06 22L15.55 15.43L15.69 19.19L15.69 22ZM29.75 18.86L26.89 13.47L28.53 13.47L30.49 17.51L32.46 13.47L34.10 13.47L31.24 18.86L31.24 22L29.75 22L29.75 18.86Z" fill="#FFFFFF"/><path class="svg__text" d="M62.45 22L60.07 22L60.07 13.60L63.91 13.60Q65.05 13.60 65.89 13.98Q66.73 14.35 67.19 15.06Q67.64 15.76 67.64 16.71L67.64 16.71Q67.64 17.66 67.19 18.35Q66.73 19.05 65.89 19.42Q65.05 19.80 63.91 19.80L63.91 19.80L62.45 19.80L62.45 22ZM62.45 15.47L62.45 17.93L63.77 17.93Q64.50 17.93 64.87 17.61Q65.24 17.29 65.24 16.71L65.24 16.71Q65.24 16.12 64.87 15.80Q64.50 15.47 63.77 15.47L63.77 15.47L62.45 15.47ZM74.77 22L72.40 22L72.40 13.60L76.24 13.60Q77.38 13.60 78.22 13.98Q79.06 14.35 79.52 15.06Q79.97 15.76 79.97 16.71L79.97 16.71Q79.97 17.62 79.54 18.30Q79.12 18.98 78.33 19.36L78.33 19.36L80.14 22L77.59 22L76.07 19.77L74.77 19.77L74.77 22ZM74.77 15.47L74.77 17.93L76.09 17.93Q76.83 17.93 77.20 17.61Q77.57 17.29 77.57 16.71L77.57 16.71Q77.57 16.12 77.20 15.79Q76.83 15.47 76.09 15.47L76.09 15.47L74.77 15.47ZM84.33 17.80L84.33 17.80Q84.33 16.55 84.94 15.55Q85.54 14.56 86.60 14.00Q87.67 13.43 89.00 13.43L89.00 13.43Q90.33 13.43 91.39 14.00Q92.45 14.56 93.06 15.55Q93.67 16.55 93.67 17.80L93.67 17.80Q93.67 19.05 93.06 20.04Q92.45 21.04 91.39 21.60Q90.33 22.17 89.00 22.17L89.00 22.17Q87.67 22.17 86.60 21.60Q85.54 21.04 84.94 20.04Q84.33 19.05 84.33 17.80ZM86.73 17.80L86.73 17.80Q86.73 18.51 87.03 19.05Q87.33 19.60 87.85 19.90Q88.36 20.20 89.00 20.20L89.00 20.20Q89.63 20.20 90.15 19.90Q90.67 19.60 90.96 19.05Q91.26 18.51 91.26 17.80L91.26 17.80Q91.26 17.09 90.96 16.54Q90.67 16 90.15 15.70Q89.63 15.40 89.00 15.40L89.00 15.40Q88.36 15.40 87.84 15.70Q87.33 16 87.03 16.54Q86.73 17.09 86.73 17.80ZM100.77 22L98.39 22L98.39 13.60L104.99 13.60L104.99 15.44L100.77 15.44L100.77 17.28L104.48 17.28L104.48 19.12L100.77 19.12L100.77 22ZM111.96 22L109.58 22L109.58 13.60L111.96 13.60L111.96 22ZM123.52 22L117.13 22L117.13 13.60L119.51 13.60L119.51 20.11L123.52 20.11L123.52 22ZM134.68 22L127.94 22L127.94 13.60L134.53 13.60L134.53 15.44L130.29 15.44L130.29 16.85L134.02 16.85L134.02 18.63L130.29 18.63L130.29 20.17L134.68 20.17L134.68 22Z" fill="#FFFFFF" x="58.88"/></svg>