<svg xmlns="http://www.w3.org/2000/svg" width="159.98" height="35" viewBox="0 0 159.98 35"><rect class="svg__rect" x="0" y="0" width="56.78" height="35" fill="#8CEFFF"/><rect class="svg__rect" x="54.78" y="0" width="105.19999999999999" height="35" fill="#000000"/><path class="svg__text" d="M13.95 18.00L13.95 18.00L13.95 17.52Q13.95 16.28 14.39 15.32Q14.83 14.37 15.64 13.86Q16.44 13.35 17.49 13.35Q18.53 13.35 19.34 13.85Q20.14 14.35 20.58 15.29Q21.02 16.23 21.03 17.48L21.03 17.48L21.03 17.96Q21.03 19.21 20.59 20.16Q20.16 21.10 19.35 21.61Q18.55 22.12 17.50 22.12L17.50 22.12Q16.46 22.12 15.65 21.61Q14.84 21.10 14.40 20.17Q13.95 19.23 13.95 18.00ZM15.43 17.46L15.43 17.96Q15.43 19.36 15.98 20.13Q16.53 20.90 17.50 20.90L17.50 20.90Q18.48 20.90 19.01 20.15Q19.54 19.40 19.54 17.96L19.54 17.96L19.54 17.51Q19.54 16.09 19.01 15.34Q18.47 14.58 17.49 14.58L17.49 14.58Q16.53 14.58 15.98 15.33Q15.44 16.09 15.43 17.46L15.43 17.46ZM25.36 19.16L25.36 19.16L25.36 13.47L26.83 13.47L26.83 19.18Q26.83 20.03 27.27 20.48Q27.70 20.93 28.54 20.93L28.54 20.93Q30.25 20.93 30.25 19.13L30.25 19.13L30.25 13.47L31.73 13.47L31.73 19.17Q31.73 20.53 30.86 21.32Q29.99 22.12 28.54 22.12L28.54 22.12Q27.08 22.12 26.22 21.33Q25.36 20.55 25.36 19.16ZM37.78 22L36.30 22L36.30 13.47L39.30 13.47Q40.78 13.47 41.58 14.13Q42.38 14.79 42.38 16.05L42.38 16.05Q42.38 16.90 41.97 17.48Q41.56 18.06 40.82 18.37L40.82 18.37L42.73 21.92L42.73 22L41.15 22L39.44 18.71L37.78 18.71L37.78 22ZM37.78 14.66L37.78 17.52L39.31 17.52Q40.06 17.52 40.48 17.15Q40.90 16.77 40.90 16.11L40.90 16.11Q40.90 15.43 40.51 15.05Q40.12 14.68 39.35 14.66L39.35 14.66L37.78 14.66Z" fill="#000000"/><path class="svg__text" d="M72.94 22L68.97 22L68.97 13.60L72.94 13.60Q74.32 13.60 75.39 14.12Q76.46 14.63 77.05 15.58Q77.63 16.53 77.63 17.80L77.63 17.80Q77.63 19.07 77.05 20.02Q76.46 20.97 75.39 21.48Q74.32 22 72.94 22L72.94 22ZM71.35 15.50L71.35 20.10L72.85 20.10Q73.92 20.10 74.58 19.49Q75.23 18.88 75.23 17.80L75.23 17.80Q75.23 16.72 74.58 16.11Q73.92 15.50 72.85 15.50L72.85 15.50L71.35 15.50ZM84.74 22L82.36 22L82.36 13.60L84.74 13.60L84.74 22ZM89.33 21.24L89.33 21.24L90.11 19.49Q90.67 19.86 91.42 20.09Q92.16 20.32 92.88 20.32L92.88 20.32Q94.25 20.32 94.25 19.64L94.25 19.64Q94.25 19.28 93.86 19.11Q93.47 18.93 92.60 18.74L92.60 18.74Q91.66 18.53 91.02 18.30Q90.38 18.06 89.93 17.55Q89.48 17.03 89.48 16.16L89.48 16.16Q89.48 15.39 89.89 14.77Q90.31 14.15 91.15 13.79Q91.98 13.43 93.19 13.43L93.19 13.43Q94.02 13.43 94.82 13.62Q95.63 13.80 96.24 14.17L96.24 14.17L95.51 15.93Q94.31 15.28 93.18 15.28L93.18 15.28Q92.47 15.28 92.15 15.49Q91.83 15.70 91.83 16.04L91.83 16.04Q91.83 16.37 92.21 16.54Q92.59 16.71 93.44 16.89L93.44 16.89Q94.40 17.10 95.03 17.33Q95.66 17.56 96.13 18.07Q96.59 18.58 96.59 19.46L96.59 19.46Q96.59 20.21 96.17 20.83Q95.75 21.44 94.91 21.80Q94.07 22.17 92.87 22.17L92.87 22.17Q91.85 22.17 90.89 21.92Q89.93 21.67 89.33 21.24ZM100.74 17.80L100.74 17.80Q100.74 16.54 101.34 15.54Q101.93 14.55 102.98 13.99Q104.04 13.43 105.35 13.43L105.35 13.43Q106.51 13.43 107.43 13.84Q108.35 14.25 108.97 15.02L108.97 15.02L107.46 16.39Q106.64 15.40 105.48 15.40L105.48 15.40Q104.79 15.40 104.26 15.70Q103.73 16 103.43 16.54Q103.13 17.09 103.13 17.80L103.13 17.80Q103.13 18.51 103.43 19.05Q103.73 19.60 104.26 19.90Q104.79 20.20 105.48 20.20L105.48 20.20Q106.64 20.20 107.46 19.22L107.46 19.22L108.97 20.58Q108.36 21.35 107.43 21.76Q106.51 22.17 105.35 22.17L105.35 22.17Q104.04 22.17 102.98 21.61Q101.93 21.05 101.34 20.05Q100.74 19.06 100.74 17.80ZM113.08 17.80L113.08 17.80Q113.08 16.55 113.68 15.55Q114.28 14.56 115.35 14.00Q116.41 13.43 117.74 13.43L117.74 13.43Q119.07 13.43 120.13 14.00Q121.20 14.56 121.80 15.55Q122.41 16.55 122.41 17.80L122.41 17.80Q122.41 19.05 121.80 20.04Q121.20 21.04 120.14 21.60Q119.08 22.17 117.74 22.17L117.74 22.17Q116.41 22.17 115.35 21.60Q114.28 21.04 113.68 20.04Q113.08 19.05 113.08 17.80ZM115.47 17.80L115.47 17.80Q115.47 18.51 115.78 19.05Q116.08 19.60 116.59 19.90Q117.11 20.20 117.74 20.20L117.74 20.20Q118.38 20.20 118.90 19.90Q119.41 19.60 119.71 19.05Q120.01 18.51 120.01 17.80L120.01 17.80Q120.01 17.09 119.71 16.54Q119.41 16 118.90 15.70Q118.38 15.40 117.74 15.40L117.74 15.40Q117.10 15.40 116.59 15.70Q116.08 16 115.78 16.54Q115.47 17.09 115.47 17.80ZM129.52 22L127.14 22L127.14 13.60L130.98 13.60Q132.13 13.60 132.96 13.98Q133.80 14.35 134.26 15.06Q134.72 15.76 134.72 16.71L134.72 16.71Q134.72 17.62 134.29 18.30Q133.86 18.98 133.07 19.36L133.07 19.36L134.88 22L132.34 22L130.81 19.77L129.52 19.77L129.52 22ZM129.52 15.47L129.52 17.93L130.84 17.93Q131.57 17.93 131.94 17.61Q132.31 17.29 132.31 16.71L132.31 16.71Q132.31 16.12 131.94 15.79Q131.57 15.47 130.84 15.47L130.84 15.47L129.52 15.47ZM143.48 22L139.50 22L139.50 13.60L143.48 13.60Q144.86 13.60 145.92 14.12Q146.99 14.63 147.58 15.58Q148.17 16.53 148.17 17.80L148.17 17.80Q148.17 19.07 147.58 20.02Q146.99 20.97 145.92 21.48Q144.86 22 143.48 22L143.48 22ZM141.88 15.50L141.88 20.10L143.38 20.10Q144.46 20.10 145.11 19.49Q145.77 18.88 145.77 17.80L145.77 17.80Q145.77 16.72 145.11 16.11Q144.46 15.50 143.38 15.50L143.38 15.50L141.88 15.50Z" fill="#FFFFFF" x="67.78"/></svg>